<?xml version="1.0" standalone="no"?>
<!DOCTYPE svg PUBLIC "-//W3C//DTD SVG 20010904//EN"
 "http://www.w3.org/TR/2001/REC-SVG-20010904/DTD/svg10.dtd">
<svg version="1.0" xmlns="http://www.w3.org/2000/svg"
 width="300.000000pt" height="300.000000pt" viewBox="0 0 300.000000 300.000000"
 preserveAspectRatio="xMidYMid meet">
<metadata>
Created by potrace 1.11, written by Peter Selinger 2001-2013
</metadata>
<g transform="translate(0.000000,300.000000) scale(0.100000,-0.100000)"
fill="#000000" stroke="none">
<path d="M932 2000 c-43 -10 -98 -55 -140 -114 l-34 -46 38 0 c63 0 114 -39
181 -137 143 -210 253 -374 253 -378 0 -3 -87 -5 -192 -5 l-193 0 -78 -108
-78 -107 507 -3 c279 -1 509 0 512 2 3 4 -199 300 -504 738 -44 64 -90 118
-112 132 -42 28 -110 39 -160 26z"/>
<path d="M1220 1984 c0 -3 85 -128 189 -277 103 -150 213 -309 242 -354 60
-91 77 -99 144 -67 36 17 135 115 135 134 0 7 -26 49 -58 93 -32 45 -119 171
-192 280 l-134 197 -163 0 c-90 0 -163 -3 -163 -6z"/>
<path d="M2332 1927 c-102 -149 -355 -504 -397 -558 -51 -65 -118 -116 -165
-125 -16 -4 -30 -8 -30 -10 0 -3 12 -22 26 -44 67 -101 187 -135 279 -79 47
28 84 72 210 254 66 94 190 270 277 392 87 122 158 225 158 228 0 3 -71 5
-157 5 l-158 0 -43 -63z"/>
<path d="M748 1813 c-10 -2 -57 -61 -105 -131 -47 -70 -158 -227 -245 -349
-87 -122 -158 -225 -158 -228 0 -3 71 -5 158 -5 l157 0 114 163 c63 89 155
217 203 285 l89 122 -20 33 c-30 49 -84 96 -122 107 -35 10 -43 11 -71 3z"/>
</g>
</svg>
